<svg width="23" height="19" viewBox="0 0 23 19" fill="none" xmlns="http://www.w3.org/2000/svg">
<path d="M0 1.46875C0 0.793359 0.543359 0.25 1.21875 0.25H21.5312C22.2066 0.25 22.75 0.793359 22.75 1.46875C22.75 2.14414 22.2066 2.6875 21.5312 2.6875H1.21875C0.543359 2.6875 0 2.14414 0 1.46875ZM0 9.59375C0 8.91836 0.543359 8.375 1.21875 8.375H21.5312C22.2066 8.375 22.75 8.91836 22.75 9.59375C22.75 10.2691 22.2066 10.8125 21.5312 10.8125H1.21875C0.543359 10.8125 0 10.2691 0 9.59375ZM22.75 17.7188C22.75 18.3941 22.2066 18.9375 21.5312 18.9375H1.21875C0.543359 18.9375 0 18.3941 0 17.7188C0 17.0434 0.543359 16.5 1.21875 16.5H21.5312C22.2066 16.5 22.75 17.0434 22.75 17.7188Z" fill="#002E5F"/>
</svg>
