<svg width="17" height="18" viewBox="0 0 17 18" fill="none" xmlns="http://www.w3.org/2000/svg">
<path d="M16.5195 2.95713C16.9969 2.47979 16.9969 1.70791 16.5195 1.23564C16.0422 0.763379 15.2703 0.758301 14.798 1.23564L8.75505 7.27861L2.70701 1.23057C2.22966 0.753223 1.45779 0.753223 0.985522 1.23057C0.513257 1.70791 0.508179 2.47978 0.985522 2.95205L7.02849 8.99502L0.980444 15.0431C0.503101 15.5204 0.503101 16.2923 0.980444 16.7646C1.45779 17.2368 2.22966 17.2419 2.70193 16.7646L8.7449 10.7216L14.7929 16.7696C15.2703 17.247 16.0422 17.247 16.5144 16.7696C16.9867 16.2923 16.9918 15.5204 16.5144 15.0481L10.4715 9.00518L16.5195 2.95713Z" fill="#002E5F"/>
</svg>
