<svg width="18" height="18" viewBox="0 0 18 18" fill="none" xmlns="http://www.w3.org/2000/svg">
<path d="M9 1.6875C10.9394 1.6875 12.7994 2.45792 14.1707 3.82928C15.5421 5.20064 16.3125 7.0606 16.3125 9C16.3125 10.9394 15.5421 12.7994 14.1707 14.1707C12.7994 15.5421 10.9394 16.3125 9 16.3125C7.0606 16.3125 5.20064 15.5421 3.82928 14.1707C2.45792 12.7994 1.6875 10.9394 1.6875 9C1.6875 7.0606 2.45792 5.20064 3.82928 3.82928C5.20064 2.45792 7.0606 1.6875 9 1.6875ZM9 18C11.3869 18 13.6761 17.0518 15.364 15.364C17.0518 13.6761 18 11.3869 18 9C18 6.61305 17.0518 4.32387 15.364 2.63604C13.6761 0.948212 11.3869 0 9 0C6.61305 0 4.32387 0.948212 2.63604 2.63604C0.948212 4.32387 0 6.61305 0 9C0 11.3869 0.948212 13.6761 2.63604 15.364C4.32387 17.0518 6.61305 18 9 18ZM7.59375 11.8125C7.12617 11.8125 6.75 12.1887 6.75 12.6563C6.75 13.1238 7.12617 13.5 7.59375 13.5H10.4063C10.8738 13.5 11.25 13.1238 11.25 12.6563C11.25 12.1887 10.8738 11.8125 10.4063 11.8125H10.125V8.71875C10.125 8.25117 9.74883 7.875 9.28125 7.875H7.59375C7.12617 7.875 6.75 8.25117 6.75 8.71875C6.75 9.18633 7.12617 9.5625 7.59375 9.5625H8.4375V11.8125H7.59375ZM9 6.75C9.29837 6.75 9.58452 6.63147 9.7955 6.4205C10.0065 6.20952 10.125 5.92337 10.125 5.625C10.125 5.32663 10.0065 5.04048 9.7955 4.82951C9.58452 4.61853 9.29837 4.5 9 4.5C8.70163 4.5 8.41548 4.61853 8.20451 4.82951C7.99353 5.04048 7.875 5.32663 7.875 5.625C7.875 5.92337 7.99353 6.20952 8.20451 6.4205C8.41548 6.63147 8.70163 6.75 9 6.75Z" fill="#A85100"/>
</svg>
